<svg width="16" height="17" viewBox="0 0 16 17" fill="none" xmlns="http://www.w3.org/2000/svg">
<path fill-rule="evenodd" clip-rule="evenodd" d="M14 0.660156H2C0.897 0.660156 0 1.55716 0 2.66016V14.6602C0 15.7632 0.897 16.6602 2 16.6602H8V11.1602H6V8.66016H8V6.66016C8 5.86451 8.31607 5.10145 8.87868 4.53884C9.44129 3.97623 10.2044 3.66016 11 3.66016H13V6.16016H12C11.448 6.16016 11 6.10816 11 6.66016V8.66016H13.5L12.5 11.1602H11V16.6602H14C15.103 16.6602 16 15.7632 16 14.6602V2.66016C16 1.55716 15.103 0.660156 14 0.660156Z" fill="white"/>
</svg>
