<svg width="212" height="35" viewBox="0 0 212 35" fill="none" xmlns="http://www.w3.org/2000/svg">
<path d="M0 31.5835L4.85157 26.7316C5.52467 27.405 6.42065 27.7767 7.36909 27.7767C9.33177 27.7767 10.9314 26.1768 10.9314 24.2147V2.49155L17.7933 0.306274V24.2147C17.7933 26.9984 16.7097 29.6166 14.7382 31.5835C12.7672 33.5503 10.1534 34.6386 7.36909 34.6386C4.58512 34.6386 1.96683 33.5545 0 31.5835Z" fill="white"/>
<path d="M31.5158 33.218C29.4612 32.3481 27.6171 31.1068 26.0347 29.5247C24.4526 27.9423 23.2113 26.0979 22.3414 24.0436C21.441 21.9149 20.9863 19.6553 20.9863 17.3301C20.9863 15.0049 21.441 12.745 22.3414 10.6166C23.2113 8.56236 24.4526 6.71765 26.0347 5.13553C27.6171 3.55341 29.4612 2.31214 31.5158 1.44224C33.6445 0.541816 35.9041 0.0871582 38.229 0.0871582C40.5544 0.0871582 42.8141 0.541816 44.9428 1.44224C46.9973 2.31214 48.8414 3.55342 50.4236 5.13553C52.0063 6.71765 53.2475 8.56236 54.1171 10.6166C55.0176 12.745 55.4722 15.0049 55.4722 17.3301C55.4722 19.6553 55.0176 21.9149 54.1171 24.0436C53.2475 26.0979 52.0063 27.9423 50.4236 29.5247C48.8414 31.1068 46.9973 32.3481 44.9428 33.218C42.8141 34.1184 40.5544 34.5728 38.229 34.5728C35.9041 34.5728 33.6445 34.1184 31.5158 33.218ZM30.8863 9.99155C28.9236 11.9539 27.8441 14.5589 27.8441 17.3346C27.8441 20.1099 28.9236 22.7149 30.8863 24.6773C32.849 26.6399 35.4536 27.7194 38.229 27.7194C41.0049 27.7194 43.6096 26.6399 45.5723 24.6773C47.5344 22.7149 48.6144 20.1099 48.6144 17.3346C48.6144 14.5589 47.5344 11.9539 45.5723 9.99155C43.6096 8.02917 41.0002 6.94943 38.229 6.94943C35.4584 6.94943 32.849 8.02917 30.8863 9.99155Z" fill="white"/>
<path d="M76.2283 0.306274L68.5358 11.6879L60.8037 0.306274H52.7135L64.1386 17.348L52.5605 34.3986H60.6685L68.4748 23.0125L68.4845 23.0267L84.1005 0.306274H76.2283Z" fill="white"/>
<path d="M78.7543 25.9978H70.5215L76.281 34.3985H84.4803L78.7543 25.9978Z" fill="white"/>
<path d="M92.1178 13.1082V34.3983H85.2559V0.306274H91.3354L106.585 21.7929V0.306274H113.448V34.3983H107.237L92.1178 13.1082Z" fill="white"/>
<path d="M119 34.0923H141.072V27.7105H119V34.0923ZM119 20.3678H141.072V13.8552H119V20.3678ZM119 0V6.51252H141.072V0H119Z" fill="white"/>
<path d="M164.069 12.8328L157.893 34.3986H151.948L141.096 0.306274H148.386L154.881 21.4346L160.826 0.306274H167.294L173.203 21.3996L179.738 0.306274H186.98L176.084 34.3986H170.135L164.069 12.8328Z" fill="white"/>
<path d="M187.014 29.3673L186.092 28.3791L190.607 22.9772L191.774 24.4413C192.687 25.5865 193.88 26.5261 195.218 27.1556C196.477 27.7499 197.836 28.0602 199.147 28.0602C200.695 28.0602 202.014 27.7194 202.863 27.1032C203.627 26.548 203.999 25.805 203.999 24.826C203.999 23.7593 203.671 23.0996 202.837 22.4745C201.874 21.7575 200.318 21.1719 198.513 20.4902C198.36 20.4333 198.203 20.3722 198.042 20.3109C195.563 19.3888 193.181 18.4403 191.271 16.9193C190.161 16.0363 189.339 15.0615 188.758 13.9427C188.111 12.7014 187.783 11.2897 187.783 9.74671C187.783 7.05877 188.946 4.57177 191.053 2.74455C193.098 0.974516 195.847 0 198.798 0C202.609 0 206.329 1.37227 209.55 3.96419L210.713 4.90403L206.521 10.3588L205.297 9.3534C203.142 7.57449 200.773 6.5561 198.798 6.5561C196.962 6.5561 194.812 7.3516 194.777 9.59377C194.764 10.5947 195.244 11.1409 195.974 11.6525C197.019 12.3866 198.679 13.0203 200.437 13.6934L200.454 13.6978C200.73 13.8072 201.005 13.9166 201.28 14.0212C203.767 14.996 206.119 15.9139 207.902 17.3825C210.009 19.122 211.036 21.4122 211.036 24.3888C211.036 26.0018 210.691 27.5009 210.009 28.8468C209.366 30.1059 208.448 31.2031 207.268 32.1077C205.118 33.7508 202.22 34.6602 199.104 34.6602C194.497 34.6602 190.205 32.7811 187.014 29.3673Z" fill="white"/>
</svg>
