<svg width="122" height="21" viewBox="0 0 122 21" fill="none" xmlns="http://www.w3.org/2000/svg">
<path d="M0.113281 18.7245L2.91279 15.9248C3.30119 16.3134 3.8182 16.5279 4.36548 16.5279C5.498 16.5279 6.42103 15.6047 6.42103 14.4725V1.93754L10.3806 0.676575V14.4725C10.3806 16.0787 9.75533 17.5896 8.61767 18.7245C7.48036 19.8594 5.97209 20.4874 4.36548 20.4874C2.75904 20.4874 1.24821 19.8618 0.113281 18.7245Z" fill="#1F1F1F"/>
<path d="M18.2985 19.668C17.1129 19.166 16.0488 18.4498 15.1357 17.5369C14.2228 16.6238 13.5065 15.5595 13.0046 14.3741C12.485 13.1458 12.2227 11.8419 12.2227 10.5002C12.2227 9.15851 12.485 7.85444 13.0046 6.62631C13.5065 5.44094 14.2228 4.37648 15.1357 3.46355C16.0488 2.55061 17.1129 1.83436 18.2985 1.3324C19.5268 0.812828 20.8307 0.550476 22.1722 0.550476C23.5141 0.550476 24.818 0.812828 26.0463 1.3324C27.2318 1.83436 28.2959 2.55062 29.2089 3.46355C30.1221 4.37648 30.8384 5.44094 31.3402 6.62631C31.8598 7.85444 32.1221 9.15851 32.1221 10.5002C32.1221 11.8419 31.8598 13.1458 31.3402 14.3741C30.8384 15.5595 30.1221 16.6238 29.2089 17.5369C28.2959 18.4498 27.2318 19.166 26.0463 19.668C24.818 20.1876 23.5141 20.4498 22.1722 20.4498C20.8307 20.4498 19.5268 20.1876 18.2985 19.668ZM17.9352 6.26562C16.8027 7.39798 16.1798 8.90112 16.1798 10.5028C16.1798 12.1042 16.8027 13.6074 17.9352 14.7397C19.0678 15.8723 20.5707 16.4951 22.1722 16.4951C23.774 16.4951 25.277 15.8723 26.4095 14.7397C27.5417 13.6074 28.1649 12.1042 28.1649 10.5028C28.1649 8.90112 27.5417 7.39798 26.4095 6.26562C25.277 5.13327 23.7713 4.51022 22.1722 4.51022C20.5735 4.51022 19.0678 5.13327 17.9352 6.26562Z" fill="#1F1F1F"/>
<path d="M44.0984 0.676575L39.6597 7.24411L35.198 0.676575H30.5297L37.1223 10.5102L30.4414 20.3489H35.12L39.6244 13.7788L39.63 13.787L48.6409 0.676575H44.0984Z" fill="#1F1F1F"/>
<path d="M45.5553 15.5015H40.8047L44.1281 20.3489H48.8594L45.5553 15.5015Z" fill="#1F1F1F"/>
<path d="M53.2682 8.06366V20.3487H49.3086V0.676575H52.8167L61.6162 13.075V0.676575H65.5762V20.3487H61.9922L53.2682 8.06366Z" fill="#1F1F1F"/>
<path d="M68.2715 20.3489H81.0079V16.6664H68.2715V20.3489ZM68.2715 12.4294H81.0079V8.67148H68.2715V12.4294ZM68.2715 0.676575V4.4345H81.0079V0.676575H68.2715Z" fill="#1F1F1F"/>
<path d="M94.7854 7.90478L91.2216 20.3489H87.7915L81.5293 0.676575H85.7362L89.484 12.8683L92.9141 0.676575H96.6465L100.056 12.8481L103.827 0.676575H108.006L101.718 20.3489H98.286L94.7854 7.90478Z" fill="#1F1F1F"/>
<path d="M108.026 17.4458L107.494 16.8756L110.1 13.7585L110.773 14.6034C111.3 15.2642 111.988 15.8064 112.76 16.1696C113.487 16.5126 114.271 16.6916 115.027 16.6916C115.921 16.6916 116.682 16.4949 117.171 16.1394C117.613 15.819 117.827 15.3903 117.827 14.8254C117.827 14.2099 117.638 13.8292 117.156 13.4685C116.601 13.0548 115.703 12.7168 114.662 12.3235C114.574 12.2906 114.483 12.2554 114.39 12.22C112.959 11.6879 111.585 11.1407 110.483 10.263C109.842 9.75348 109.368 9.19098 109.033 8.54536C108.659 7.8291 108.47 7.01451 108.47 6.12416C108.47 4.57313 109.141 3.13806 110.357 2.08369C111.537 1.06233 113.123 0.5 114.826 0.5C117.025 0.5 119.171 1.29185 121.03 2.78746L121.701 3.32978L119.282 6.47732L118.576 5.89721C117.333 4.87072 115.966 4.28307 114.826 4.28307C113.767 4.28307 112.526 4.7421 112.506 6.03591C112.498 6.61346 112.775 6.92866 113.196 7.22385C113.799 7.64747 114.758 8.01313 115.772 8.40152L115.782 8.40409C115.941 8.4672 116.099 8.5303 116.258 8.59067C117.693 9.15318 119.05 9.68284 120.079 10.5303C121.295 11.534 121.888 12.8555 121.888 14.5731C121.888 15.5038 121.689 16.3689 121.295 17.1455C120.924 17.872 120.395 18.5052 119.714 19.0271C118.473 19.9753 116.801 20.5 115.002 20.5C112.344 20.5 109.867 19.4157 108.026 17.4458Z" fill="#1F1F1F"/>
</svg>
