<svg width="20" height="21" viewBox="0 0 20 21" fill="none" xmlns="http://www.w3.org/2000/svg">
<path d="M4 4.96317C4 4.23142 4.7839 3.76809 5.42504 4.12029L15.29 9.54603C15.441 9.62898 15.5669 9.75097 15.6547 9.89924C15.7424 10.0475 15.7887 10.2166 15.7887 10.3889C15.7887 10.5612 15.7424 10.7303 15.6547 10.8786C15.5669 11.0269 15.441 11.1488 15.29 11.2318L5.42504 16.6575C5.27859 16.738 5.11369 16.779 4.94658 16.7764C4.77948 16.7738 4.61595 16.7276 4.47211 16.6425C4.32826 16.5575 4.20907 16.4364 4.12629 16.2912C4.0435 16.146 3.99997 15.9818 4 15.8146V4.96317Z" fill="#D9D9D9"/>
</svg>
