<svg width="10" height="11" viewBox="0 0 10 11" fill="none" xmlns="http://www.w3.org/2000/svg">
<g clip-path="url(#clip0_6218_2238)">
<path d="M9.625 10.125L6.99052 7.49052M6.99052 7.49052C7.70355 6.7775 8.10412 5.81043 8.10412 4.80206C8.10412 3.79369 7.70355 2.82662 6.99052 2.1136C6.2775 1.40057 5.31043 1 4.30206 1C3.29369 1 2.32662 1.40057 1.6136 2.1136C0.900573 2.82662 0.5 3.79369 0.5 4.80206C0.5 5.81043 0.900573 6.7775 1.6136 7.49052C2.32662 8.20355 3.29369 8.60412 4.30206 8.60412C5.31043 8.60412 6.2775 8.20355 6.99052 7.49052Z" stroke="#6D6D6D" stroke-linecap="round" stroke-linejoin="round"/>
</g>
<defs>
<clipPath id="clip0_6218_2238">
<rect width="10" height="10" fill="white" transform="translate(0 0.5)"/>
</clipPath>
</defs>
</svg>
