<svg width="22" height="17" viewBox="0 0 22 17" fill="none" xmlns="http://www.w3.org/2000/svg">
<path d="M21.45 3.08873C21.175 2.08873 20.4875 1.37444 19.525 1.08873C17.875 0.660157 10.8625 0.660156 10.8625 0.660156C10.8625 0.660156 3.98751 0.660157 2.20001 1.08873C1.23751 1.37444 0.549996 2.08873 0.274996 3.08873C-4.20026e-06 4.94587 0 8.66016 0 8.66016C0 8.66016 4.17978e-06 12.3744 0.412504 14.2316C0.687504 15.2316 1.375 15.9459 2.3375 16.2316C3.9875 16.6602 11 16.6602 11 16.6602C11 16.6602 17.875 16.6602 19.6625 16.2316C20.625 15.9459 21.3125 15.2316 21.5875 14.2316C22 12.3744 22 8.66016 22 8.66016C22 8.66016 22 4.94587 21.45 3.08873ZM8.79999 12.0887V5.23159L14.575 8.66016L8.79999 12.0887Z" fill="white"/>
</svg>
